<?xml version="1.0" encoding="UTF-8" standalone="no"?>
<svg width="67px" height="53px" viewBox="0 0 67 53" version="1.1" xmlns="http://www.w3.org/2000/svg" xmlns:xlink="http://www.w3.org/1999/xlink">
    <!-- Generator: Sketch 3.6.1 (26313) - http://www.bohemiancoding.com/sketch -->
    <title>Untitled</title>
    <desc>Created with Sketch.</desc>
    <defs></defs>
    <g id="Page-1" stroke="none" stroke-width="1" fill="none" fill-rule="evenodd">
        <path d="M62.2142857,46.9772727 L62.2142857,18.0681818 C61.4166667,18.9715909 60.5567336,19.7997159 59.6344866,20.5525568 C52.9544271,25.7220644 47.6452753,29.9630682 43.7070312,33.2755682 C42.4358259,34.3546402 41.4014137,35.1953125 40.6037946,35.7975852 C39.8061756,36.399858 38.7281436,37.0084044 37.3696987,37.6232244 C36.0112537,38.2380445 34.733817,38.5454545 33.5373884,38.5454545 L33.4626116,38.5454545 C32.266183,38.5454545 30.9887463,38.2380445 29.6303013,37.6232244 C28.2718564,37.0084044 27.1938244,36.399858 26.3962054,35.7975852 C25.5985863,35.1953125 24.5641741,34.3546402 23.2929687,33.2755682 C19.3547247,29.9630682 14.0455729,25.7220644 7.36551339,20.5525568 C6.44326637,19.7997159 5.58333333,18.9715909 4.78571429,18.0681818 L4.78571429,46.9772727 C4.78571429,47.3035038 4.90411086,47.5858191 5.14090402,47.8242187 C5.37769717,48.0626184 5.65811012,48.1818182 5.98214286,48.1818182 L61.0178571,48.1818182 C61.3418899,48.1818182 61.6223028,48.0626184 61.859096,47.8242187 C62.0958891,47.5858191 62.2142857,47.3035038 62.2142857,46.9772727 L62.2142857,46.9772727 Z M62.2142857,7.41548295 L62.2142857,6.49325284 L62.1955915,6.00390625 L62.0834263,5.53338068 L61.8777902,5.19460227 L61.5412946,4.91228693 L61.0178571,4.81818182 L5.98214286,4.81818182 C5.65811012,4.81818182 5.37769717,4.93738163 5.14090402,5.17578125 C4.90411086,5.41418087 4.78571429,5.69649621 4.78571429,6.02272727 C4.78571429,10.2386364 6.61774554,13.8020833 10.281808,16.7130682 C15.0924479,20.5274621 20.0900298,24.5049716 25.2745536,28.6455966 C25.4241071,28.7710701 25.8603051,29.1412169 26.5831473,29.7560369 C27.3059896,30.370857 27.8792783,30.8413826 28.3030134,31.1676136 C28.7267485,31.4938447 29.281343,31.8890862 29.9667969,32.3533381 C30.6522507,32.81759 31.281622,33.162642 31.8549107,33.3884943 C32.4281994,33.6143466 32.9640997,33.7272727 33.4626116,33.7272727 L33.5373884,33.7272727 C34.0359003,33.7272727 34.5718006,33.6143466 35.1450893,33.3884943 C35.718378,33.162642 36.3477493,32.81759 37.0332031,32.3533381 C37.718657,31.8890862 38.2732515,31.4938447 38.6969866,31.1676136 C39.1207217,30.8413826 39.6940104,30.370857 40.4168527,29.7560369 C41.1396949,29.1412169 41.5758929,28.7710701 41.7254464,28.6455966 C46.9099702,24.5049716 51.9075521,20.5274621 56.718192,16.7130682 C58.0641741,15.6339962 59.3166853,14.1847775 60.4757254,12.3654119 C61.6347656,10.5460464 62.2142857,8.89607008 62.2142857,7.41548295 L62.2142857,7.41548295 Z M67,6.02272727 L67,46.9772727 C67,48.6335227 66.4142485,50.0513731 65.2427455,51.2308239 C64.0712426,52.4102746 62.6629464,53 61.0178571,53 L5.98214286,53 C4.33705357,53 2.92875744,52.4102746 1.75725446,51.2308239 C0.585751488,50.0513731 0,48.6335227 0,46.9772727 L0,6.02272727 C0,4.36647727 0.585751488,2.94862689 1.75725446,1.76917614 C2.92875744,0.589725379 4.33705357,0 5.98214286,0 L61.0178571,0 C62.6629464,0 64.0712426,0.589725379 65.2427455,1.76917614 C66.4142485,2.94862689 67,4.36647727 67,6.02272727 L67,6.02272727 Z" id="Shape" fill="#000000"></path>
    </g>
</svg>